HIERARCHY
ROOT Hips
{
  OFFSET 2.26061 22.2878 23.7974
  CHANNELS 6 Xposition Yposition Zposition Zrotation Xrotation Yrotation
  JOINT LeftUpLeg
  {
    OFFSET 8.64259 1.95398 -2.38835
    CHANNELS 3 Zrotation Xrotation Yrotation
    JOINT LeftLeg
    {
      OFFSET 43.7702 0 0
      CHANNELS 3 Zrotation Xrotation Yrotation
      JOINT LeftFoot
      {
        OFFSET 40.6238 0 0
        CHANNELS 3 Zrotation Xrotation Yrotation
        JOINT LeftToeBase
        {
          OFFSET 12.7242 0 0
          CHANNELS 3 Zrotation Xrotation Yrotation
          End Site
          {
            OFFSET 0 0 0
          }
        }
      }
    }
  }
  JOINT RightUpLeg
  {
    OFFSET -8.2249 1.95398 -2.59336
    CHANNELS 3 Zrotation Xrotation Yrotation
    JOINT RightLeg
    {
      OFFSET 43.5653 0 0
      CHANNELS 3 Zrotation Xrotation Yrotation
      JOINT RightFoot
      {
        OFFSET 40.6238 0 0
        CHANNELS 3 Zrotation Xrotation Yrotation
        JOINT RightToeBase
        {
          OFFSET 12.7242 0 0
          CHANNELS 3 Zrotation Xrotation Yrotation
          End Site
          {
            OFFSET 0 0 0
          }
        }
      }
    }
  }
  JOINT Spine
  {
    OFFSET 0.165834 0.87714 6.61349
    CHANNELS 3 Zrotation Xrotation Yrotation
    JOINT Spine1
    {
      OFFSET 7.38963 1.71661e-005 0
      CHANNELS 3 Zrotation Xrotation Yrotation
      JOINT Spine2
      {
        OFFSET 11.9445 1.14441e-005 0
        CHANNELS 3 Zrotation Xrotation Yrotation
        JOINT Spine3
        {
          OFFSET 14.7254 4.19617e-005 0
          CHANNELS 3 Zrotation Xrotation Yrotation
          JOINT Spine4
          {
            OFFSET 10.9679 0 0
            CHANNELS 3 Zrotation Xrotation Yrotation
            JOINT RightShoulder
            {
              OFFSET 2.46616 -1.6653 3.69651
              CHANNELS 3 Zrotation Xrotation Yrotation
              JOINT RightArm
              {
                OFFSET 13.0012 0 0
                CHANNELS 3 Zrotation Xrotation Yrotation
                JOINT RightForeArm
                {
                  OFFSET 28.7848 1.52588e-005 0
                  CHANNELS 3 Zrotation Xrotation Yrotation
                  JOINT RightHand
                  {
                    OFFSET 26.5688 1.52588e-005 0
                    CHANNELS 3 Zrotation Xrotation Yrotation
                    End Site
                    {
                      OFFSET 0 0 0
                    }
                  }
                }
              }
            }
            JOINT LeftShoulder
            {
              OFFSET 2.38034 -1.29275 -3.7523
              CHANNELS 3 Zrotation Xrotation Yrotation
              JOINT LeftArm
              {
                OFFSET 16.3182 6.10351e-005 0
                CHANNELS 3 Zrotation Xrotation Yrotation
                JOINT LeftForeArm
                {
                  OFFSET 27.0901 0 0
                  CHANNELS 3 Zrotation Xrotation Yrotation
                  JOINT LeftHand
                  {
                    OFFSET 24.5451 1.52588e-005 0
                    CHANNELS 3 Zrotation Xrotation Yrotation
                    End Site
                    {
                      OFFSET 0 0 0
                    }
                  }
                }
              }
            }
            JOINT Neck
            {
              OFFSET 5.0226 -0.0266342 0
              CHANNELS 3 Zrotation Xrotation Yrotation
              JOINT Head
              {
                OFFSET 6.69363 2.86102e-005 0
                CHANNELS 3 Zrotation Xrotation Yrotation
                End Site
                {
                  OFFSET 0 0 0
                }
              }
            }
          }
        }
      }
    }
  }
}
MOTION
Frames:	18
Frame Time:	0.0416667
-122.766 12.0517 -121.072 2.41248 -3.83728 43.2645 -173.547 8.42021 90.3931 -25.4105 29.9874 -0.015441 57.9027 -0.00714585 3.29453 78.1264 42.1193 6.81992 176.602 8.11749 89.8822 -29.7875 -17.054 -5.43416 65.8859 -3.20341 -1.76123 59.2426 3.88229 11.3619 -0.145041 6.94506 -89.7332 12.9838 -0.159823 0.553021 1.3128 -0.135334 0.559513 -21.2217 -0.318635 0.479434 -1.20906 -0.318636 0.479429 93.8126 -47.083 -95.4465 -6.1385 18.2698 40.3387 -26.2511 9.84733 -132.873 -66.0635 -7.0008 8.29126 -93.5264 -42.7367 71.3576 25.3719 -16.1612 55.8708 26.0716 -13.7272 -141.571 67.5139 15.3185 17.5412 31.001 -6.95175 13.3376 25.4753 -15.3064 -14.0564 
-122.789 12.1138 -121.063 2.59539 -3.83734 43.1915 -173.567 8.29229 90.3463 -25.2866 30.2832 -0.0291036 57.23 -0.505919 3.55586 80.0791 42.1332 4.0204 176.53 8.03007 89.8076 -29.8708 -16.9725 -5.44638 66.1676 -3.29498 -1.8049 59.9486 3.84548 10.6692 -0.0935961 6.96681 -89.6963 12.94 -0.0401039 0.612137 1.26888 -0.0131234 0.613309 -21.2652 -0.222228 0.571782 -1.2526 -0.222211 0.5718 94.5987 -47.511 -94.1195 -5.18802 17.0244 39.4611 -31.7406 16.1771 -130.456 -57.6301 -4.45971 6.37147 -90.75 -39.2715 74.8734 14.7622 -15.199 51.353 29.9388 -18.9121 -139.119 68.2512 14.7453 16.4546 30.618 -7.47274 11.8331 26.6882 -14.8948 -12.468 
-122.841 12.1063 -121.076 2.72654 -3.82109 43.2005 -173.679 8.32353 90.3172 -25.5566 30.3389 0.0654752 57.4299 -0.311637 3.63032 81.5785 41.7462 1.27411 176.528 7.98006 89.8518 -30.0215 -16.9845 -5.44285 66.3019 -3.3282 -1.81838 59.4017 3.61919 9.99427 -0.0652989 6.98453 -89.7266 12.9045 0.0014366 0.546531 1.23344 0.0254857 0.545931 -21.3009 -0.162883 0.521678 -1.2882 -0.162887 0.521686 95.1353 -46.7148 -93.3807 -4.27407 16.8299 39.2599 -30.9012 15.5765 -130.514 -61.8531 -4.195 5.20528 -92.1882 -40.5643 72.8653 19.1918 -16.0959 53.1775 28.0081 -16.3497 -140.078 68.463 14.3919 15.8897 31.0527 -7.44017 12.4895 26.2712 -15.1697 -12.7274 
-122.81 12.102 -121.073 2.63077 -3.82973 43.2487 -173.669 8.36888 90.3399 -25.5592 30.2727 0.0726604 57.2762 -0.448518 3.65574 84.11 40.8921 -3.53505 176.566 8.03187 89.8793 -29.9197 -16.8464 -5.4253 66.145 -3.27812 -1.79632 60.0497 3.88332 10.7828 0.0250911 6.99539 -89.7688 12.8825 0.160702 0.442947 1.21151 0.180047 0.435466 -21.323 0.0201446 0.470774 -1.31039 0.0201493 0.470778 96.3197 -46.1599 -91.5397 -3.84838 16.52 38.7308 -31.7455 16.5784 -130.234 -57.2508 -4.84067 6.99577 -93.1634 -41.2332 71.4659 21.1187 -16.4129 53.8162 27.3162 -15.3222 -140.527 68.3722 14.3795 15.9035 31.4909 -7.57863 11.8025 26.172 -14.67 -11.3148 
-122.751 12.1823 -121.059 2.52568 -4.08654 43.0506 -173.723 8.11451 90.0272 -25.3197 29.6441 0.0203708 57.4071 -0.256328 3.67859 85.3101 39.7849 -6.94041 176.637 8.10646 89.7862 -30.2401 -17.0095 -5.69188 66.0654 -3.2184 -1.7579 60.3521 3.78381 10.1175 0.129714 7.02615 -89.8158 12.821 0.34581 0.326868 1.15008 0.359872 0.31132 -21.3849 0.231575 0.415676 -1.37228 0.231595 0.415686 97.5117 -44.9503 -89.7207 -2.70801 16.0209 37.9551 -32.1447 17.2927 -130.206 -56.4845 -5.12219 7.66616 -92.0096 -40.2815 73.0692 15.7396 -15.3156 50.2445 29.6134 -18.3648 -139.013 67.3808 14.8101 16.8783 31.346 -7.56994 12.4339 26.3243 -14.8321 -11.0814 
-122.59 12.2366 -121.145 2.17397 -4.58675 42.7413 -173.622 7.69 89.6445 -24.9297 29.3342 -0.234534 58.2066 0.472439 3.9317 84.784 38.1004 -9.2275 176.413 8.22911 89.4064 -30.637 -17.2563 -5.84832 65.9392 -3.10861 -1.68829 61.234 3.98023 10.4202 0.220105 7.04832 -89.875 12.7768 0.497005 0.190791 1.10591 0.504936 0.168729 -21.4297 0.416688 0.331362 -1.41703 0.416693 0.331355 97.4871 -42.9781 -89.9713 -1.91948 16.4198 37.7967 -31.6628 16.726 -130.239 -56.7615 -5.19826 7.70009 -92.6928 -41.5237 72.3297 18.0731 -16.2094 50.5654 28.313 -16.8072 -139.174 65.451 13.9249 16.3535 32.1693 -7.34498 13.2002 25.4788 -14.8504 -10.8813 
-122.355 12.3133 -121.347 1.83072 -5.48323 42.6129 -173.66 6.95053 89.3356 -24.6644 29.189 -0.258898 59.3061 1.50016 4.52136 83.7663 36.3241 -11.1717 176.251 8.03682 89.212 -31.0052 -17.4877 -5.86224 65.9159 -3.10003 -1.68205 60.8822 3.04259 6.40285 0.336795 7.1275 -89.9825 12.6195 0.677411 -0.0446478 0.948773 0.674787 -0.0744307 -21.5878 0.659503 0.161027 -1.57514 0.6595 0.161002 98.5559 -41.3415 -88.2961 -1.5349 17.1822 36.3547 -32.7302 16.8045 -130.373 -58.1794 -4.88876 7.06021 -92.5402 -43.9619 73.3067 18.9499 -18.8524 49.1461 27.4124 -15.9432 -139.534 62.36 12.6794 15.6408 32.853 -6.92566 13.3979 25.2636 -14.4283 -10.2933 
-122.07 12.4015 -121.527 1.21348 -6.11397 42.5031 -173.621 6.64286 89.0965 -24.2236 28.5582 -0.367569 59.5047 1.73077 4.37489 84.0192 35.1091 -13.7103 175.713 8.12109 89.119 -30.872 -15.9199 -5.26512 65.2436 -2.74201 -1.482 63.2786 2.44879 2.89042 0.421209 7.16817 -90.0908 12.5388 0.793542 -0.273376 0.868013 0.780719 -0.308022 -21.6691 0.839004 -0.0222093 -1.65643 0.838991 -0.0222234 99.6166 -40.3108 -86.5213 -0.384192 16.82 33.3727 -31.8922 16.6682 -130.258 -59.8313 -4.29076 5.60302 -91.413 -45.8192 75.5837 16.8122 -22.8017 46.7093 28.2417 -17.3587 -139.615 57.6673 11.5605 15.6579 33.295 -6.418 12.8239 25.1103 -13.5873 -9.61143 
-121.855 12.4874 -121.666 0.843205 -6.9189 42.2067 -173.719 5.82258 88.7238 -23.3555 27.7333 -0.368066 59.3476 1.66737 3.89631 84.678 34.4883 -15.6346 174.946 7.83405 88.933 -30.7615 -13.4993 -4.45939 65.679 -2.78972 -1.49608 62.9841 2.1035 1.54932 0.487567 7.20398 -90.1231 12.4676 0.910201 -0.350434 0.796967 0.893894 -0.390169 -21.7407 0.973439 -0.0606611 -1.72811 0.973445 -0.060665 99.8597 -39.4469 -86.1434 -0.544378 18.402 32.3886 -33.4176 16.9025 -130.143 -59.0294 -4.35482 6.01878 -92.1133 -47.1687 74.8528 20.2037 -27.4262 48.7313 27.5073 -16.7689 -141.287 54.7833 10.7137 15.3245 32.2502 -6.11179 11.648 26.6274 -12.538 -8.37208 
-121.676 12.566 -121.807 0.533622 -7.61513 41.8884 -173.813 5.21824 88.3758 -22.8529 27.766 -0.42212 59.2989 1.67729 3.92597 83.6414 34.4515 -14.483 173.873 7.64581 88.5308 -30.5507 -11.3262 -3.36592 65.2379 -2.50015 -1.33211 64.3765 2.33453 2.08576 0.490895 7.26698 -90.2232 12.3421 0.869598 -0.544292 0.671316 0.844814 -0.582069 -21.8659 0.992982 -0.257771 -1.85326 0.992988 -0.257762 100.655 -38.3613 -84.7672 3.15874 13.3592 28.7861 -32.5905 19.1625 -129.683 -54.0099 -4.75858 7.38377 -92.2588 -48.2416 74.9131 25.1839 -31.9794 51.5416 25.3121 -13.8078 -143.577 53.1351 10.2777 15.1857 32.833 -5.04699 11.84 26.2909 -11.4424 -7.60988 
-121.489 12.6142 -121.918 -0.158031 -8.18624 41.9249 -173.677 5.29173 88.3901 -22.9739 28.1866 -0.546568 59.1579 1.59956 4.73211 81.6947 35.1839 -10.7161 173.158 7.82478 88.468 -30.3229 -9.49006 -2.33591 64.1088 -2.03754 -1.08467 67.1681 2.48146 1.85681 0.525833 7.26976 -90.3939 12.3377 0.85804 -0.882921 0.666706 0.818373 -0.91982 -21.8695 1.08373 -0.584225 -1.85686 1.08372 -0.584218 100.799 -36.0645 -84.5985 10.6899 1.94274 24.1133 -29.6902 19.8971 -131.045 -63.2167 -3.98312 3.69237 -90.892 -47.3965 76.7833 37.9169 -40.479 56.9255 21.5914 -8.44886 -147.386 49.3676 8.87505 14.0457 33.6378 -3.53408 12.7984 25.6624 -10.5276 -7.87619 
-121.119 12.6273 -122.081 -1.23121 -8.74314 41.2416 -173.879 5.34255 87.6371 -22.7839 26.4004 -0.658918 59.4433 1.73108 3.56873 76.6307 35.4157 -3.33095 172.045 8.9474 87.466 -31.4658 -9.68797 -1.51382 63.7549 -1.91274 -1.01943 69.8754 1.30275 -2.58729 0.528259 7.21865 -90.5885 12.4398 0.769794 -1.26358 0.768473 0.713431 -1.29622 -21.7653 1.11395 -0.973837 -1.75269 1.11394 -0.973845 100.475 -33.2645 -85.3492 12.8835 -8.94383 18.7306 -29.7942 22.588 -129.806 -65.2753 -5.82099 5.93802 -89.6382 -45.0154 78.1694 56.8584 -47.127 65.2829 17.2281 -0.493445 -149.564 48.1197 7.28964 11.175 34.2169 -1.38373 13.3992 25.4138 -8.75005 -7.61338 
-120.724 13.1989 -122.517 -2.47841 -10.8597 40.1881 -174.096 4.44343 86.6822 -22.1115 26.0753 -0.856575 58.8537 1.42879 3.90016 72.1807 36.499 5.78253 169.911 10.2781 85.3732 -32.5559 -10.1781 -0.0879332 61.2061 -0.901798 -0.412945 72.3009 -0.0112127 -6.87683 0.779449 7.25493 -90.686 12.3708 1.22311 -1.50874 0.699466 1.15554 -1.56111 -21.8363 1.61999 -1.07143 -1.82364 1.61998 -1.07143 99.5383 -30.8034 -87.3877 11.0801 -12.6443 17.4833 -32.4572 25.6979 -127.439 -66.4744 -7.7574 8.78445 -86.6531 -41.5794 82.2877 51.083 -46.4693 55.0763 16.7219 -0.430672 -146.248 47.632 6.87056 10.4898 32.8732 -0.301484 12.7416 26.3281 -6.98976 -6.14464 
-119.999 13.8206 -123.201 -4.17597 -14.1578 39.0231 -174.378 2.34371 85.4731 -20.0029 24.7278 -0.973327 57.8396 0.892551 3.34693 71.5168 36.7765 7.45483 166.741 12.4486 82.5249 -36.2512 -6.82951 2.30332 59.4886 -0.177663 0.078913 65.6136 -0.411139 -8.60196 0.939378 7.29693 -90.8542 12.2901 1.46183 -1.86975 0.618566 1.37816 -1.93225 -21.917 1.95614 -1.34399 -1.90431 1.95614 -1.34401 98.2937 -29.9359 -90.0354 8.02071 -14.133 14.8977 -34.4991 27.6517 -126.068 -64.8571 -8.92423 11.0611 -85.4662 -37.6851 83.5871 62.9209 -52.6298 58.4824 15.0028 3.50433 -144.96 42.9882 5.93482 9.95568 30.6897 1.7645 13.0475 27.2061 -4.97948 -6.06539 
-118.707 14.3495 -124.263 -8.76067 -18.6816 37.6667 -174.255 -1.01794 84.4132 -14.19 22.1834 -1.44368 56.3519 0.407173 3.3195 71.8421 36.3337 6.01838 161.875 17.3443 78.413 -41.7427 -2.539 6.12261 55.0291 1.28734 1.17906 58.341 0.265546 -6.18973 1.19774 7.21215 -91.1397 12.4655 1.83771 -2.48681 0.793335 1.72653 -2.56524 -21.7405 2.49999 -1.8197 -1.72788 2.5 -1.81972 95.9568 -28.401 -95.106 4.89612 -12.9859 12.5315 -35.8481 27.3628 -124.383 -61.3301 -9.33454 12.7653 -83.7222 -31.66 85.7262 76.0654 -60.2932 63.1072 11.6964 10.3049 -138.469 37.9839 4.06822 6.91116 28.4829 4.19424 11.8063 27.0986 -1.75311 -5.21656 
-117.318 14.7072 -125.396 -14.4668 -23.3537 36.3416 -174.695 -3.72807 83.7328 -8.72131 19.9356 -1.30354 56.671 1.48587 1.03458 65.592 33.8394 12.3764 158.221 28.604 76.4943 -57.6535 -5.68824 6.74699 50.7061 2.31177 2.04269 52.9281 0.0271522 -8.1326 1.46066 7.10678 -91.4091 12.6843 2.22835 -3.07813 1.0114 2.09079 -3.17311 -21.5213 3.0502 -2.26645 -1.50871 3.05019 -2.26644 92.4467 -28.4378 -102.371 0.720258 -12.8314 13.2419 -34.3166 23.9685 -122.839 -62.3482 -8.88261 11.5227 -83.2193 -24.8927 85.4404 79.0255 -60.5624 51.4978 6.63203 12.54 -120.974 36.258 3.03294 4.52664 22.7696 6.5713 12.9703 30.7072 -0.266891 -7.57392 
-115.468 14.8365 -126.353 -17.9027 -25.018 35.4839 -175.467 -3.38695 82.6702 -8.06048 20.6469 -1.1021 58.024 3.97105 5.92663 62.8528 32.6226 15.451 154.856 43.1126 76.6302 -76.6797 -9.38946 4.61066 47.5984 2.92343 2.61907 49.1583 0.280513 -6.48184 1.46852 7.12965 -91.5467 12.6386 2.17905 -3.34571 0.964892 2.0298 -3.43824 -21.5629 3.08354 -2.53665 -1.55026 3.08353 -2.53665 91.6771 -26.9471 -104.49 0.122634 -12.6625 11.8063 -33.7799 22.1929 -121.176 -64.1422 -9.28024 11.6061 -80.3946 -17.4952 90.6874 66.9519 -60.6026 27.8604 7.04281 7.86207 -100.219 37.4399 2.89624 3.86555 22.8599 8.55807 11.7594 31.0371 2.09757 -7.16855 
-113.297 15.2117 -127.243 -18.846 -24.6869 36.458 -175.995 -2.33104 82.3693 -8.31011 15.5863 -0.436289 62.5509 10.1363 6.87305 59.0931 28.4437 14.1854 148.8 58.1974 81.1345 -93.5243 -10.7637 1.46917 48.1676 2.45284 2.13843 47.147 0.350071 -5.89158 1.08577 7.21077 -91.7246 12.4617 1.33712 -3.5975 0.786332 1.17761 -3.65277 -21.7241 2.35604 -3.03014 -1.71151 2.35605 -3.03014 91.3969 -27.2942 -104.947 -1.70839 -13.0795 7.07424 -28.3441 16.6546 -121.276 -68.8855 -7.21969 6.81635 -78.6915 -17.1335 94.7809 66.2082 -66.5059 21.3158 7.00804 6.19609 -91.2076 32.7773 2.01242 2.26119 24.3842 10.8766 8.65598 29.7752 5.85987 -5.22869 
